<?xml version="1.0" encoding="UTF-8" standalone="no"?>
<!-- Created with Inkscape (http://www.inkscape.org/) -->

<svg
   xmlns:dc="http://purl.org/dc/elements/1.1/"
   xmlns:cc="http://creativecommons.org/ns#"
   xmlns:rdf="http://www.w3.org/1999/02/22-rdf-syntax-ns#"
   xmlns:svg="http://www.w3.org/2000/svg"
   xmlns="http://www.w3.org/2000/svg"
   xmlns:sodipodi="http://sodipodi.sourceforge.net/DTD/sodipodi-0.dtd"
   xmlns:inkscape="http://www.inkscape.org/namespaces/inkscape"
   width="383.32614mm"
   height="89.608582mm"
   viewBox="0 0 383.32614 89.608582"
   version="1.1"
   id="svg8"
   inkscape:version="0.92.2 (5c3e80d, 2017-08-06)">
  <defs
     id="defs2" />
  <sodipodi:namedview
     id="base"
     pagecolor="#ffffff"
     bordercolor="#666666"
     borderopacity="1.0"
     inkscape:pageopacity="0.0"
     inkscape:pageshadow="2"
     inkscape:zoom="0.24748737"
     inkscape:cx="1588.7284"
     inkscape:cy="260.3215"
     inkscape:document-units="mm"
     inkscape:current-layer="layer1"
     showgrid="false"
     fit-margin-top="0"
     fit-margin-left="0"
     fit-margin-right="0"
     fit-margin-bottom="0"
     inkscape:window-width="1366"
     inkscape:window-height="715"
     inkscape:window-x="-8"
     inkscape:window-y="-8"
     inkscape:window-maximized="1" />
  <metadata
     id="metadata5">
    <rdf:RDF>
      <cc:Work
         rdf:about="">
        <dc:format>image/svg+xml</dc:format>
        <dc:type
           rdf:resource="http://purl.org/dc/dcmitype/StillImage" />
        <dc:title></dc:title>
      </cc:Work>
    </rdf:RDF>
  </metadata>
  <g
     inkscape:label="Layer 1"
     inkscape:groupmode="layer"
     id="layer1"
     transform="translate(99.220798,-166.18127)">
    <g
       id="g3899">
      <path
         transform="scale(0.26458333)"
         inkscape:connector-curvature="0"
         id="path3721"
         d="M 10.338396,911.75153 C 7.0673703,910.42827 0.96022743,905.26826 -3.2330329,900.28485 -17.253129,883.62291 -12.174109,855.31613 6.9307306,843.63937 20.58446,835.2943 45.065097,828.8054 62.894771,828.8054 H 78.46668 l -1.589131,-11.84785 c -2.138858,-15.94639 -9.798303,-23.16187 -24.373466,-22.96072 -6.331926,0.0874 -15.54612,2.24471 -20.475989,4.79404 -13.36756,6.91264 -24.909096,4.64118 -31.77692457,-6.25391 l -5.75240003,-9.12558 14.8487472,-8.48047 c 41.5605524,-23.73622 87.6895434,-15.65574 102.9963034,18.042 4.50253,9.9123 5.25385,19.38478 5.30772,66.91835 l 0.0628,55.37158 -13.39768,-1.51011 c -12.395716,-1.39718 -18.475281,-5.47083 -21.84623,-14.63822 -0.82704,-2.24915 -2.718914,-2.14046 -6.531609,0.37525 -17.766405,11.72273 -27.343577,15.02144 -43.110662,14.84882 -9.098318,-0.0996 -19.218689,-1.26378 -22.489713,-2.58705 z m 56.239081,-29.46797 c 8.097677,-5.43989 9.853989,-8.52082 10.586803,-18.57143 0.868563,-11.9124 0.770974,-12.04941 -8.571429,-12.03365 -12.864148,0.0217 -29.751951,4.9799 -35.067877,10.29582 -5.975757,5.97576 -5.607728,20.11902 0.617883,23.7451 8.398826,4.89187 22.217177,3.42807 32.43462,-3.43584 z"
         style="fill:#000080;stroke:#000000;stroke-width:2.85714293" />
      <path
         transform="scale(0.26458333)"
         inkscape:connector-curvature="0"
         id="path3723"
         d="m 169.53921,960.64085 c -18.99641,-6.76911 -28.629,-16.10537 -30.87103,-29.92133 -1.56948,-9.67159 -0.6926,-11.61889 9.67167,-21.47819 11.33432,-10.78207 11.36821,-10.87865 6.10032,-17.38422 -8.90609,-10.99855 -5.78719,-24.48445 8.35442,-36.12392 l 7.20399,-5.92935 -8.67432,-6.17666 c -11.45975,-8.16007 -18.8154,-26.63673 -16.36894,-41.11718 4.97935,-29.47253 45.43426,-48.79895 79.90182,-38.17128 7.85715,2.42265 24.32761,4.41874 36.60105,4.43575 l 22.31533,0.0309 -0.88676,10.62364 c -0.76409,9.15402 -2.1277,10.97729 -9.85729,13.18007 -8.30914,2.36794 -8.87529,3.32255 -7.67884,12.94778 0.898,7.22424 -0.72198,14.31002 -5.31518,23.24851 -8.83023,17.18384 -24.54343,25.73132 -51.77578,28.16438 -18.29874,1.63489 -20.64289,2.52079 -21.43706,8.10145 -1.0141,7.12612 2.49586,8.05977 40.1831,10.68869 38.06426,2.65521 51.79129,12.72188 51.41363,37.70398 -0.44754,29.60365 -28.09188,49.89231 -70.39579,51.66469 -17.47047,0.73196 -26.93264,-0.37145 -38.48434,-4.48774 z m 60.50576,-26.54889 c 7.61237,-4.00684 10.42522,-7.95617 10.48271,-14.71807 0.0656,-7.7134 -16.85288,-13.42563 -39.76396,-13.42563 -17.23463,0 -20.42381,0.80827 -23.12831,5.86167 -4.66993,8.72583 -2.26198,17.82111 5.79316,21.88183 8.96187,4.51782 38.31482,4.76981 46.6164,0.4002 z M 223.2212,824.13437 c 7.85534,-9.98644 7.47922,-19.74544 -1.09133,-28.31598 -14.85019,-14.85019 -38.7013,-5.96605 -38.7013,14.41558 0,13.64272 8.22956,21.42857 22.64977,21.42857 8.71939,0 12.54146,-1.67843 17.14286,-7.52817 z"
         style="fill:#000080;stroke:#000000;stroke-width:2.85714293" />
      <path
         transform="scale(0.26458333)"
         inkscape:connector-curvature="0"
         id="path3725"
         d="m 306.28571,838.8054 v -75.71429 h 13.04498 c 17.40895,0 23.47281,3.7626 25.76628,15.98785 l 1.9143,10.20412 11.78008,-11.50144 c 13.86765,-13.53963 25.29644,-18.48444 36.85496,-15.94577 8.35467,1.835 8.36478,1.86338 6.40285,17.97514 -1.08077,8.87549 -3.11584,17.33341 -4.52237,18.79538 -1.40654,1.46198 -9.12166,2.7533 -17.14472,2.86961 -12.73109,0.18454 -15.64685,1.39724 -22.91329,9.52979 l -8.32592,9.31833 v 47.09779 47.09778 h -21.42857 -21.42858 z"
         style="fill:#000080;stroke:#000000;stroke-width:2.85714293" />
      <path
         transform="scale(0.26458333)"
         inkscape:connector-curvature="0"
         id="path3727"
         d="M 429.14286,838.8054 V 763.09111 H 450.57143 472 v 75.71429 75.71429 h -21.42857 -21.42857 z"
         style="fill:#000080;stroke:#000000;stroke-width:2.85714293" />
      <path
         transform="scale(0.26458333)"
         inkscape:connector-curvature="0"
         id="path3729"
         d="m 435.41337,738.83499 c -20.75694,-17.46581 -2.9699,-48.61575 23.50205,-41.15849 26.63724,7.50383 23.48427,42.81731 -4.21634,47.22322 -8.25658,1.31324 -11.86666,0.17799 -19.28571,-6.06473 z"
         style="fill:#000080;stroke:#000000;stroke-width:2.85714293" />
      <path
         transform="scale(0.26458333)"
         inkscape:connector-curvature="0"
         id="path3741"
         d="M 509.14286,805.94826 V 697.37683 H 530.57143 552 v 40 c 0,22 0.69492,40 1.54427,40 0.84934,0 5.05748,-2.59744 9.35142,-5.77209 9.92684,-7.33923 33.67308,-10.27778 47.13959,-5.83343 12.69999,4.19138 26.39529,19.37774 30.36435,33.67028 1.64839,5.93581 3.00424,34.25667 3.01301,62.93524 l 0.0159,52.14286 H 622 600.57143 v -53.74697 c 0,-50.13997 -0.39096,-54.16661 -5.82559,-60 -7.36947,-7.91021 -21.03944,-8.1431 -33.46013,-0.57006 L 552,805.86427 v 54.32771 54.32771 h -21.42857 -21.42857 z"
         style="fill:#000080;stroke:#000000;stroke-width:2.85714293" />
      <path
         transform="scale(0.26458333)"
         inkscape:connector-curvature="0"
         id="path3743"
         d="m 723.28732,913.63189 c -34.66417,-9.73952 -54.08281,-36.14127 -54.12853,-73.59363 -0.0595,-48.71918 34.70198,-80.21758 84.14747,-76.24857 39.75193,3.1909 63.98732,28.40405 66.61394,69.30142 1.58743,24.71686 -2.47584,40.48701 -14.42655,55.99164 -17.10616,22.19322 -52.7292,32.83127 -82.20633,24.54914 z m 42.67587,-34.53461 c 16.29002,-14.74226 15.26563,-65.47489 -1.58977,-78.73335 -10.76843,-8.47044 -30.49204,-7.98536 -39.44758,0.97018 -18.44093,18.44092 -15.88468,69.28829 4.05055,80.5712 9.12417,5.16409 29.92249,3.58508 36.9868,-2.80803 z"
         style="fill:#000080;stroke:#000000;stroke-width:2.85714293" />
      <path
         transform="scale(0.26458333)"
         inkscape:connector-curvature="0"
         id="path3745"
         d="m 870.12499,914.40135 c -6.53126,-1.29216 -17.13442,-5.03253 -23.56259,-8.31194 l -11.68757,-5.96255 6.41973,-9.93408 c 8.37472,-12.95929 13.65013,-14.34503 27.57199,-7.24263 13.67582,6.97688 28.04695,7.5268 36.78343,1.40752 14.09915,-9.87542 6.11158,-20.18745 -23.03102,-29.73325 -31.89402,-10.44704 -44.14591,-25.22407 -41.36558,-49.89112 1.77491,-15.74699 10.36285,-28.01417 24.26178,-34.65601 22.05286,-10.53833 59.6925,-7.90806 75.88819,5.3031 l 7.70136,6.28215 -5.97578,9.28572 c -6.73073,10.45879 -9.83919,11.09507 -24.42677,5 -19.95407,-8.33735 -38.13073,-3.50453 -38.13073,10.13821 0,6.78785 8.01016,12.03604 30,19.65574 21.79845,7.55339 30.11547,13.64735 36.69694,26.88821 4.60434,9.26319 4.84141,12.37889 1.88086,24.71985 -7.21382,30.07057 -38.99376,44.97082 -79.02424,37.05108 z"
         style="fill:#000080;stroke:#000000;stroke-width:2.85714293" />
      <path
         transform="scale(0.26458333)"
         inkscape:connector-curvature="0"
         id="path3747"
         d="m 1013.4286,913.21498 c -22.70283,-8.3332 -27.10465,-20.98697 -27.12695,-77.98101 -0.015,-38.22534 -0.35098,-40.71428 -5.49654,-40.71428 -11.2023,0 -14.5194,-3.20818 -14.5194,-14.04266 0,-10.08853 0.55112,-10.69775 12.00065,-13.26574 11.90785,-2.67079 12.0372,-2.83765 16.72697,-21.57722 2.59947,-10.38709 5.63217,-20.35138 6.73937,-22.14286 1.1072,-1.79148 7.7229,-3.25724 14.7016,-3.25724 h 12.6886 v 22.85714 22.85715 h 18.5714 18.5714 v 14.28571 14.28572 h -18.5714 -18.5714 v 39.45391 c 0,45.27702 1.8992,50.74535 16.8618,48.5493 8.2351,-1.20865 10.1004,-0.076 17.4376,10.58823 l 8.2161,11.94166 -9.6776,4.61493 c -14.5162,6.92232 -35.2336,8.43595 -48.5522,3.54726 z"
         style="fill:#000080;stroke:#000000;stroke-width:2.85714293" />
      <path
         transform="scale(0.26458333)"
         inkscape:connector-curvature="0"
         id="path3749"
         d="m -155.85714,689.77031 c -5.45193,-2.1999 -4.33783,-26.09166 2.02893,-43.51037 6.71349,-18.36731 7.96987,-19.91113 10.46849,-12.86348 1.05471,2.97492 3.6564,9.74453 5.78154,15.04358 4.7865,11.93517 5.04088,35.18838 0.43532,39.79393 -3.46657,3.46657 -12.16164,4.18039 -18.71428,1.53634 z"
         style="fill:#a6ce38;fill-opacity:1;stroke:#000000;stroke-width:2.85714293" />
      <path
         transform="scale(0.26458333)"
         inkscape:connector-curvature="0"
         id="path3751"
         d="m -173.38426,721.2864 c -6.92507,-4.8505 -20.25354,-30.30678 -20.30211,-38.77537 -0.022,-3.83457 3.75664,-2.36166 17.82923,6.94981 25.64101,16.96599 31.51742,27.08406 19.47354,33.52975 -7.37472,3.94683 -9.19291,3.76457 -17.00066,-1.70419 z"
         style="fill:#a6ce38;fill-opacity:1;stroke:#000000;stroke-width:2.85714293" />
      <path
         transform="scale(0.26458333)"
         inkscape:connector-curvature="0"
         id="path3753"
         d="m -137.52381,724.04349 c -1.04762,-1.04761 -1.90476,-5.3235 -1.90476,-9.50196 0,-7.35679 10.18325,-20.02184 16.09843,-20.02184 1.58015,0 8.24729,-4.60019 14.81586,-10.22264 6.56857,-5.62245 11.942851,-8.80462 11.942851,-7.07148 0,7.57114 -11.884231,35.98228 -17.593101,42.05909 -5.91725,6.29863 -19.12812,8.98999 -23.35928,4.75883 z"
         style="fill:#a6ce38;fill-opacity:1;stroke:#000000;stroke-width:2.85714293" />
      <path
         transform="scale(0.26458333)"
         inkscape:connector-curvature="0"
         id="path3755"
         d="m -135.9357,770.07196 c -12.68267,-8.88329 -6.81278,-20.94656 17.17356,-35.29354 5.86653,-3.50896 13.88799,-10.46694 17.82546,-15.46219 6.06198,-7.6905 7.163883,-8.20471 7.190711,-3.3556 0.01743,3.14967 -3.182602,14.58841 -7.111171,25.41943 -3.92857,10.83102 -7.14286,20.16578 -7.14286,20.74391 0,1.28441 -17.97206,12.37011 -20.07855,12.38504 -0.82892,0.006 -4.36464,-1.9908 -7.85715,-4.43705 z"
         style="fill:#a6ce38;fill-opacity:1;stroke:#000000;stroke-width:2.85714293" />
      <path
         transform="scale(0.26458333)"
         inkscape:connector-curvature="0"
         id="path3757"
         d="m -177.88278,762.35119 c -5.84826,-5.84826 -11.05516,-15.30984 -14,-25.43973 -6.41867,-22.07945 -6.04611,-23.15817 4.59707,-13.31052 5.10714,4.7254 15.07142,12.70836 22.14285,17.73991 13.35177,9.50021 17.38731,18.85614 11.29806,26.19324 -5.51359,6.64348 -14.05276,4.80232 -24.03798,-5.1829 z"
         style="fill:#a6ce38;fill-opacity:1;stroke:#000000;stroke-width:2.85714293" />
      <path
         transform="scale(0.26458333)"
         inkscape:connector-curvature="0"
         id="path3759"
         d="m -175.95201,812.91767 c -8.20924,-5.74997 -15.00723,-18.90055 -19.38838,-37.50643 -3.85976,-16.39161 -2.4473,-21.04233 3.71761,-12.2407 2.21793,3.16655 11.00588,10.90883 19.52878,17.20506 19.84017,14.65679 25.62539,23.0869 21.33939,31.09535 -3.82589,7.14875 -16.05424,7.85085 -25.1974,1.44672 z"
         style="fill:#a6ce38;fill-opacity:1;stroke:#000000;stroke-width:2.85714293" />
      <path
         transform="scale(0.26458333)"
         inkscape:connector-curvature="0"
         id="path3761"
         d="m -138.02512,811.63478 c -4.6197,-5.10471 -4.75272,-6.57122 -1.1984,-13.21253 2.19895,-4.10877 10.84724,-11.33591 19.21842,-16.06031 8.37119,-4.72441 17.2425,-11.67604 19.71403,-15.44807 7.274739,-11.10265 7.61817,-5.5217 0.94091,15.29031 -9.86765,30.75598 -26.21652,43.19703 -38.67496,29.4306 z"
         style="fill:#a6ce38;fill-opacity:1;stroke:#000000;stroke-width:2.85714293" />
      <path
         transform="scale(0.26458333)"
         inkscape:connector-curvature="0"
         id="path3763"
         d="m -137.55718,860.72328 c -9.36789,-10.35139 -4.57029,-18.37575 20.67016,-34.57251 8.13812,-5.22221 16.62973,-12.86842 18.87026,-16.99158 6.184406,-11.38092 5.490003,-0.67165 -1.472323,22.70654 -8.431867,28.31264 -26.301907,41.85904 -38.068097,28.85755 z"
         style="fill:#a6ce38;fill-opacity:1;stroke:#000000;stroke-width:2.85714293" />
      <path
         transform="scale(0.26458333)"
         inkscape:connector-curvature="0"
         id="path3765"
         d="m -179.10464,855.71113 c -6.45794,-8.20994 -17.51477,-35.84673 -17.37991,-43.44148 0.0802,-4.51687 0.29958,-4.52842 2.85504,-0.15027 1.52249,2.60841 11.02579,9.95772 21.11844,16.33181 18.65563,11.78209 23.47769,18.67844 20.22536,28.92564 -2.80316,8.83196 -19.37088,7.80296 -26.81893,-1.6657 z"
         style="fill:#a6ce38;fill-opacity:1;stroke:#000000;stroke-width:2.85714293" />
      <path
         transform="scale(0.26458333)"
         inkscape:connector-curvature="0"
         id="path3767"
         d="m -148.87597,915.38479 c -0.76979,-1.26152 -2.32311,-10.97225 -3.45182,-21.57939 l -2.05219,-19.28571 h 7.30708 c 4.0189,0 7.87796,0.96428 8.5757,2.14285 2.49417,4.21299 -2.42475,38.8495 -5.66954,39.922 -1.82028,0.60166 -3.93943,0.0618 -4.70923,-1.19975 z"
         style="fill:#a6ce38;fill-opacity:1;stroke:#000000;stroke-width:2.85714293" />
      <path
         transform="scale(0.26458333)"
         inkscape:connector-curvature="0"
         id="path3769"
         d="m -247.66781,864.14507 c -8.76315,-6.13795 -7.5064,-14.38999 5.3821,-35.33967 6.28395,-10.21429 11.42608,-21.07857 11.42696,-24.14286 10e-4,-4.18966 0.81421,-4.75883 3.27809,-2.29494 4.91743,4.91743 6.81925,45.39385 2.5111,53.4437 -5.30306,9.90886 -15.15983,13.54383 -22.59825,8.33377 z"
         style="fill:#ffcc00;fill-opacity:1;stroke:#000000;stroke-width:2.85714293" />
      <path
         transform="scale(0.26458333)"
         inkscape:connector-curvature="0"
         id="path3771"
         d="m -297.23659,871.5472 c -11.96973,-9.86646 -23.64165,-25.10166 -21.14415,-27.59916 0.91917,-0.91917 3.40974,-0.22837 5.5346,1.53511 2.12486,1.76347 12.57566,4.44013 23.224,5.94812 19.77659,2.80071 30.19357,8.75053 30.19357,17.24552 0,14.21684 -22.01513,15.88824 -37.80802,2.87041 z"
         style="fill:#ffcc00;fill-opacity:1;stroke:#000000;stroke-width:2.85714293" />
      <path
         transform="scale(0.26458333)"
         inkscape:connector-curvature="0"
         id="path3773"
         d="m -306.57143,832.90526 c -8.91493,-4.61415 -30,-23.77151 -30,-27.25723 0,-1.09872 5.99006,-0.19493 13.31123,2.00842 7.32118,2.20335 17.60689,4.00609 22.85715,4.00609 9.09981,0 20.97448,7.97229 20.97448,14.08163 0,4.35936 -8.6277,11.63395 -13.77551,11.61506 -2.63776,-0.01 -8.65306,-2.01397 -13.36735,-4.45397 z"
         style="fill:#ffcc00;fill-opacity:1;stroke:#000000;stroke-width:2.85714293" />
      <path
         transform="scale(0.26458333)"
         inkscape:connector-curvature="0"
         id="path3775"
         d="m -268.98575,817.86614 c -6.56107,-7.2499 -6.21534,-8.73158 6.70004,-28.71418 6.28571,-9.72523 11.42857,-18.92456 11.42857,-20.44296 0,-1.51841 1.28571,-2.76074 2.85714,-2.76074 2.98238,0 4.38923,16.16002 3.10921,35.71428 -1.24359,18.99777 -13.87741,27.49387 -24.09496,16.2036 z"
         style="fill:#ffcc00;fill-opacity:1;stroke:#000000;stroke-width:2.85714293" />
      <path
         transform="scale(0.26458333)"
         inkscape:connector-curvature="0"
         id="path3777"
         d="m -288.14615,777.23068 c -6.42688,-6.42688 -5.63824,-13.13691 3.00504,-25.56814 2.73149,-3.92857 7.93569,-12.92857 11.56489,-20 6.34453,-12.36219 6.67791,-12.58217 8.65973,-5.71428 6.1721,21.38899 0.60409,51.16289 -10.35437,55.36805 -6.39287,2.45318 -6.31027,2.47938 -12.87529,-4.08563 z"
         style="fill:#ffcc00;fill-opacity:1;stroke:#000000;stroke-width:2.85714293" />
      <path
         transform="scale(0.26458333)"
         inkscape:connector-curvature="0"
         id="path3785"
         d="m -332.57132,789.30217 c -6.12863,-4.44107 -14.90329,-13.0069 -19.49924,-19.03519 -8.33078,-10.9271 -8.33514,-10.95398 -1.42857,-8.81551 3.81024,1.17976 14.57119,3.33338 23.91324,4.78581 9.34205,1.45244 19.94919,4.58266 23.57143,6.95604 12.58531,8.24621 6.03439,24.18351 -9.94045,24.18351 -3.0104,0 -10.48778,-3.6336 -16.61641,-8.07466 z"
         style="fill:#ffcc00;fill-opacity:1;stroke:#000000;stroke-width:2.85714293" />
      <path
         transform="scale(0.26458333)"
         inkscape:connector-curvature="0"
         id="path3789"
         d="m -352.38393,746.50228 c -12.70565,-9.29501 -22.90454,-19.93222 -20.96781,-21.86895 2.22233,-2.22233 36.06386,3.51688 44.45664,7.53943 6.15827,2.95158 8.03796,5.84793 8.03796,12.38542 0,7.70263 -0.98261,8.61565 -10.09822,9.38296 -7.51516,0.6326 -12.99643,-1.27021 -21.42857,-7.43886 z"
         style="fill:#ffcc00;fill-opacity:1;stroke:#000000;stroke-width:2.85714293" />
      <path
         transform="scale(0.26458333)"
         inkscape:connector-curvature="0"
         id="path3791"
         d="m -340.60806,714.79492 c -8.25678,-9.12365 -17.37766,-57.41809 -10.84396,-57.41809 3.87495,0 25.4536,23.81984 30.28419,33.42954 5.98602,11.90826 5.80877,18.87336 -0.62857,24.69906 -6.85218,6.20114 -12.75859,5.97806 -18.81166,-0.71051 z"
         style="fill:#ffcc00;fill-opacity:1;stroke:#000000;stroke-width:2.85714293" />
      <path
         transform="scale(0.26458333)"
         inkscape:connector-curvature="0"
         id="path3793"
         d="m -306.36735,738.60132 c -6.90244,-6.90244 -5.41801,-15.69074 5.51728,-32.66404 5.50389,-8.54292 10.73932,-17.83966 11.63428,-20.65943 4.87632,-15.36394 11.1133,17.83319 6.87922,36.61558 -2.28634,10.14221 -11.25917,21.19768 -17.20445,21.19768 -1.28509,0 -4.35694,-2.0204 -6.82633,-4.48979 z"
         style="fill:#ffcc00;fill-opacity:1;stroke:#000000;stroke-width:2.85714293" />
      <path
         transform="scale(0.26458333)"
         inkscape:connector-curvature="0"
         id="path3795"
         d="m -244.54081,904.26261 c -5.04541,-8.78424 -9.17348,-17.09615 -9.17348,-18.4709 0,-2.73142 9.36446,-8.41488 13.86494,-8.41488 3.64834,0 15.68923,36.09841 13.31973,39.93235 -3.83266,6.20137 -9.18087,2.32735 -18.01119,-13.04657 z"
         style="fill:#ffcc00;fill-opacity:1;stroke:#000000;stroke-width:2.85714293" />
      <path
         transform="scale(0.26458333)"
         inkscape:connector-curvature="0"
         id="path3797"
         d="m 102.30086,910.54291 c -6.829643,-1.11155 -13.077434,-4.39587 -16.175549,-8.50314 l -5.047837,-6.69207 -15.294031,7.73808 c -12.372177,6.25975 -19.187017,7.73807 -35.671332,7.73807 -19.881521,0 -20.6007233,-0.25447 -29.56043957,-10.45902 -8.40074913,-9.56793 -9.07567033,-11.75498 -7.92172773,-25.67001 1.4062157,-16.95711 6.56127744,-24.47021 22.2271993,-32.3944 12.588368,-6.3675 36.344171,-11.47657 53.36294,-11.47657 H 81.30176 L 79.454306,819.27049 C 75.583589,795.06436 61.765569,786.97195 37.728443,794.8341 c -19.209209,6.28301 -26.484261,5.73766 -34.2892879,-2.57041 -3.68488024,-3.92238 -6.1589982,-7.62485 -5.49804,-8.22772 5.256896,-4.79486 34.0914109,-16.76519 45.6772789,-18.9624 30.597426,-5.80269 61.810696,9.91919 68.419476,34.46236 1.66589,6.18663 2.61029,33.11879 2.17009,61.88577 l -0.77939,50.93228 z M 68.769377,882.96177 c 7.445526,-5.55888 13.33294,-21.17025 10.635129,-28.20063 -0.978163,-2.54905 -6.108117,-3.93729 -14.54946,-3.93729 -30.44316,0 -48.219672,18.92109 -32.52334,34.61742 4.850888,4.85089 8.331794,5.7394 17.609785,4.49496 6.360086,-0.85306 14.832635,-3.99157 18.827886,-6.97446 z"
         style="fill:#ffffff;stroke:#000000;stroke-width:2.85714293" />
      <path
         transform="scale(0.26458333)"
         inkscape:connector-curvature="0"
         id="path3799"
         d="m 169.51973,958.75095 c -5.29272,-1.77814 -13.97129,-7.33383 -19.28571,-12.34597 -12.12491,-11.43527 -12.91545,-22.97099 -2.25738,-32.94023 11.59541,-10.84601 13.49633,-16.1021 8.43623,-23.32639 -6.82888,-9.74959 -5.29625,-18.32025 5.39157,-30.1504 l 9.80445,-10.85234 -9.48427,-8.47003 c -10.51561,-9.39108 -17.58485,-28.21068 -14.78587,-39.3627 2.61588,-10.42251 15.12774,-24.1578 27.9776,-30.71331 12.65282,-6.45499 32.74745,-7.45299 56.35934,-2.79909 8.46448,1.66835 22.92876,3.03336 32.14285,3.03336 16.58407,0 16.75289,0.0836 16.75289,8.29193 0,6.64449 -1.70297,8.88558 -8.57143,11.27994 -7.64049,2.66349 -8.57143,4.25778 -8.57143,14.67904 0,15.38577 -8.90515,32.29491 -20.91807,39.7193 -5.31692,3.28604 -19.58497,7.5165 -31.70677,9.40104 -22.08184,3.43299 -29.63709,8.34592 -24.82022,16.13977 1.19836,1.93899 13.48479,4.71108 27.65778,6.2402 38.65122,4.17007 43.19951,5.31128 52.56032,13.18788 7.61707,6.40934 8.65553,9.08733 8.65553,22.32093 0,19.30816 -8.01483,31.62362 -26.90775,41.34599 -11.73746,6.04015 -18.55781,7.33945 -41.42857,7.89228 -15.05788,0.36399 -31.70837,-0.79305 -37.00109,-2.5712 z m 60.86815,-23.38056 c 12.58385,-5.25787 15.68515,-14.59945 7.54926,-22.73949 -5.11102,-5.11362 -10.17029,-6.25176 -31.48157,-7.08214 -24.9312,-0.97143 -25.48402,-0.84882 -30.46806,6.7578 -4.54252,6.93276 -4.63897,8.52608 -0.91746,15.15642 2.28729,4.07508 7.35366,8.29876 11.25861,9.38596 12.31659,3.42915 34.05978,2.69948 44.05922,-1.47855 z m -8.65477,-108.11797 c 11.49745,-10.27327 12.20775,-19.8805 2.29045,-30.97989 -16.59392,-18.57182 -41.89369,-9.59131 -41.89369,14.87077 0,8.83683 1.64298,13.04957 6.68016,17.12843 9.1444,7.40468 24.01037,6.94443 32.92308,-1.01931 z"
         style="fill:#ffffff;stroke:#000000;stroke-width:2.85714293" />
      <path
         transform="scale(0.26458333)"
         inkscape:connector-curvature="0"
         id="path3801"
         d="m 309.14286,839.39528 v -74.28572 h 11.42857 c 13.37883,0 22.85714,7.70113 22.85714,18.57143 0,9.3708 1.46716,9.06355 14.96924,-3.13477 13.71113,-12.38718 27.54532,-18.59558 36.32217,-16.30038 6.00477,1.57028 6.33682,2.7544 4.54985,16.22518 -2.23285,16.83206 -4.41401,18.82114 -20.70372,18.88051 -10.03261,0.0366 -13.67112,1.75896 -22.14286,10.48204 l -10.13754,10.43829 v 46.70456 46.70457 h -18.57142 -18.57143 z"
         style="fill:#ffffff;stroke:#000000;stroke-width:2.85714293" />
      <path
         transform="scale(0.26458333)"
         inkscape:connector-curvature="0"
         id="path3803"
         d="m 432,839.39528 v -74.28572 h 18.57143 18.57143 v 74.28572 74.28571 H 450.57143 432 Z"
         style="fill:#ffffff;stroke:#000000;stroke-width:2.85714293" />
      <path
         transform="scale(0.26458333)"
         inkscape:connector-curvature="0"
         id="path3805"
         d="m 435.06451,734.72425 c -12.1278,-15.418 -2.80876,-35.32897 16.53522,-35.32897 11.37757,0 23.25741,10.94567 23.25741,21.42857 0,19.11757 -27.99613,28.89721 -39.79263,13.9004 z"
         style="fill:#ffffff;stroke:#000000;stroke-width:2.85714293" />
      <path
         transform="scale(0.26458333)"
         inkscape:connector-curvature="0"
         id="path3807"
         d="M 512,806.53814 V 699.39528 h 18.35006 18.35005 l 0.93566,38.34161 c 0.51461,21.08789 1.7379,39.14013 2.71842,40.1161 0.98053,0.97597 6.12338,-0.72717 11.42858,-3.78474 12.94225,-7.45909 31.61343,-10.16688 43.36396,-6.28885 12.34929,4.07563 27.04421,19.3307 30.61528,31.78227 1.54518,5.38774 2.80942,33.26866 2.80942,61.9576 v 52.16172 h -18.3038 -18.30379 l -0.98192,-54.54089 c -0.95981,-53.31282 -1.1338,-54.66381 -7.72702,-60 -8.76153,-7.0911 -24.99073,-6.99244 -36.82633,0.22386 l -9.28571,5.66161 v 54.32771 54.32771 H 530.57143 512 Z"
         style="fill:#ffffff;stroke:#000000;stroke-width:2.85714293" />
      <path
         transform="scale(0.26458333)"
         inkscape:connector-curvature="0"
         id="path3809"
         d="m 719.00915,909.8922 c -30.69481,-11.82663 -44.46366,-30.98508 -46.40808,-64.5738 -1.0526,-18.18294 -0.18577,-24.40061 5.1218,-36.7384 12.67346,-29.46025 43.16268,-46.22604 76.88696,-42.27957 41.77713,4.88883 63.10446,31.08424 63.10446,77.50839 0,32.5065 -20.10009,59.07726 -50.55092,66.82441 -15.30349,3.89344 -36.99216,3.55968 -48.15422,-0.74103 z m 49.37599,-31.35254 c 3.76012,-3.7278 7.70097,-12.88228 9.58581,-22.26754 6.20505,-30.89727 -6.50371,-62.07674 -25.64628,-62.92014 -28.64724,-1.26217 -41.06633,12.57581 -41.27921,45.99538 -0.21399,33.5952 14.05001,50.58949 39.52597,47.09167 6.28571,-0.86302 14.30188,-4.41774 17.81371,-7.89937 z"
         style="fill:#ffffff;stroke:#000000;stroke-width:2.85714293" />
      <path
         transform="scale(0.26458333)"
         inkscape:connector-curvature="0"
         id="path3811"
         d="m 866.28571,911.69224 c -2.35714,-0.84569 -9.85572,-3.93294 -16.66352,-6.86056 l -12.3778,-5.32294 6.14379,-8.62816 c 6.95842,-9.7722 14.09773,-10.81958 29.5997,-4.34244 5.64143,2.35714 13.98221,4.28571 18.53504,4.28571 8.88926,0 23.33422,-9.54793 23.33422,-15.42362 0,-6.45381 -12.48512,-15.25034 -34.59343,-24.3732 -27.89225,-11.50956 -34.5737,-18.54227 -36.13846,-38.03835 -1.42467,-17.75066 5.81645,-30.99658 22.16422,-40.54419 14.66284,-8.56356 47.97893,-8.13787 66.42482,0.84872 7.46428,3.6365 13.54284,7.46141 13.50789,8.4998 -0.0349,1.03839 -2.51088,5.07304 -5.50208,8.96589 -5.20296,6.7713 -6.0065,6.92602 -18.54891,3.57143 -19.29317,-5.16013 -32.10476,-4.43005 -38.74262,2.20781 -3.14286,3.14285 -5.71428,6.85756 -5.71428,8.2549 0,6.35396 11.74721,14.88861 31.73628,23.05722 30.68334,12.53885 41.65073,25.78318 38.21083,46.14378 -4.10141,24.276 -26.97373,39.67519 -58.51854,39.39864 -10.21429,-0.0896 -20.5,-0.85474 -22.85715,-1.70044 z"
         style="fill:#ffffff;stroke:#000000;stroke-width:2.85714293" />
      <path
         transform="scale(0.26458333)"
         inkscape:connector-curvature="0"
         id="path3813"
         d="m 1009.1461,908.86094 c -15.67561,-8.12257 -18.1777,-16.59984 -19.90182,-67.42917 -1.59747,-47.09551 -2.60074,-50.45479 -15.10142,-50.56417 -3.75569,-0.0329 -5,-2.41983 -5,-9.5915 0,-8.63734 1.07206,-9.86895 11.24301,-12.91624 10.48627,-3.14176 11.54754,-4.47028 15.76733,-19.73796 6.2843,-22.73733 7.8743,-24.82111 19.7076,-25.82767 l 10.4249,-0.88675 v 23.02961 23.02962 h 18.5714 18.5715 v 12.85714 12.85714 h -18.8957 -18.8957 l 1.1626,39.28572 c 1.3479,45.5524 3.6168,52.14285 17.9508,52.14285 7.534,0 11.3062,2.06208 16.9393,9.25985 l 7.2469,9.25985 -7.5757,3.96932 c -12.6008,6.60223 -40.6031,7.27922 -52.215,1.26236 z"
         style="fill:#ffffff;stroke:#000000;stroke-width:2.85714293" />
    </g>
  </g>
</svg>
